<svg width="19" height="19" viewBox="0 0 19 19" fill="none" xmlns="http://www.w3.org/2000/svg">
<path d="M13.7277 12.9551L10.2565 9.48382L13.7277 6.01256C13.9592 5.78115 13.9592 5.47259 13.7277 5.24118C13.4963 5.00976 13.1878 5.00976 12.9564 5.24118L9.48511 8.71243L6.01386 5.24118C5.78244 5.00976 5.47388 5.00976 5.24247 5.24118C5.01105 5.47259 5.01105 5.78115 5.24247 6.01256L8.71372 9.48382L5.24247 12.9551C5.01105 13.1865 5.01105 13.495 5.24247 13.7265C5.47388 13.9579 5.78244 13.9579 6.01386 13.7265L9.48511 10.2552L12.9564 13.7265C13.1878 13.9579 13.4963 13.9579 13.7277 13.7265C13.9592 13.495 13.9592 13.1865 13.7277 12.9551Z" fill="white" stroke="white"/>
</svg>
