<svg width="44" height="44" viewBox="0 0 44 44" fill="none" xmlns="http://www.w3.org/2000/svg">
<path fill-rule="evenodd" clip-rule="evenodd" d="M22 43C33.598 43 43 33.598 43 22C43 10.402 33.598 1 22 1C10.402 1 1 10.402 1 22C1 33.598 10.402 43 22 43Z" fill="white" stroke="#54617A"/>
<circle cx="31.3768" cy="21.3372" r="1.01489" fill="#54617A"/>
<circle cx="34.4215" cy="21.3373" r="0.507447" fill="#54617A"/>
<circle cx="28.6609" cy="25.4004" r="1.01489" transform="rotate(32.364 28.6609 25.4004)" fill="#54617A"/>
<circle cx="32.0558" cy="27.1135" r="0.507447" transform="rotate(32.364 32.0558 27.1135)" fill="#54617A"/>
<circle cx="22.2577" cy="29.4931" r="1.01489" transform="rotate(87.9759 22.2577 29.4931)" fill="#54617A"/>
<circle cx="22.2391" cy="33.0276" r="0.507447" transform="rotate(87.9759 22.2391 33.0276)" fill="#54617A"/>
<circle cx="15.8136" cy="25.7916" r="1.01489" transform="rotate(146.139 15.8136 25.7916)" fill="#54617A"/>
<circle cx="12.7766" cy="28.1324" r="0.507447" transform="rotate(146.139 12.7766 28.1324)" fill="#54617A"/>
<circle cx="15.8751" cy="17.517" r="1.01489" transform="rotate(-153.611 15.8751 17.517)" fill="#54617A"/>
<circle cx="12.2452" cy="15.9295" r="0.507447" transform="rotate(-153.611 12.2452 15.9295)" fill="#54617A"/>
<circle cx="22.2264" cy="14.2364" r="1.01489" transform="rotate(-89.784 22.2264 14.2364)" fill="#54617A"/>
<circle cx="22.2233" cy="9.6694" r="0.507447" transform="rotate(-89.784 22.2233 9.6694)" fill="#54617A"/>
<circle cx="28.7204" cy="17.827" r="1.01489" transform="rotate(-37.8183 28.7204 17.827)" fill="#54617A"/>
<circle cx="32.0675" cy="15.454" r="0.507447" transform="rotate(-37.8183 32.0675 15.454)" fill="#54617A"/>
<circle cx="26.7889" cy="21.3387" r="2.02979" fill="#54617A"/>
<circle cx="27.1649" cy="29.8344" r="1.01489" transform="rotate(59.1986 27.1649 29.8344)" fill="#54617A"/>
<circle cx="28.7246" cy="32.4496" r="0.507447" transform="rotate(59.1986 28.7246 32.4496)" fill="#54617A"/>
<circle cx="24.4967" cy="25.6441" r="2.02979" transform="rotate(59.1986 24.4967 25.6441)" fill="#54617A"/>
<circle cx="17.7618" cy="29.8186" r="1.01489" transform="rotate(118.405 17.7618 29.8186)" fill="#54617A"/>
<circle cx="16.3127" cy="32.4966" r="0.507447" transform="rotate(118.405 16.3127 32.4966)" fill="#54617A"/>
<circle cx="20.0157" cy="25.6122" r="2.02979" transform="rotate(118.405 20.0157 25.6122)" fill="#54617A"/>
<circle cx="12.5902" cy="21.866" r="1.01489" transform="rotate(178.859 12.5902 21.866)" fill="#54617A"/>
<circle cx="9.54553" cy="21.9268" r="0.507447" transform="rotate(178.859 9.54553 21.9268)" fill="#54617A"/>
<circle cx="17.1873" cy="21.8862" r="2.02979" transform="rotate(178.859 17.1873 21.8862)" fill="#54617A"/>
<circle cx="16.937" cy="13.3913" r="1.01489" transform="rotate(-121.174 16.937 13.3913)" fill="#54617A"/>
<circle cx="15.3612" cy="10.7863" r="0.507447" transform="rotate(-121.174 15.3612 10.7863)" fill="#54617A"/>
<circle cx="19.8341" cy="17.6524" r="2.02979" transform="rotate(-121.174 19.8341 17.6524)" fill="#54617A"/>
<circle cx="27.1629" cy="13.3208" r="1.01489" transform="rotate(-59.552 27.1629 13.3208)" fill="#54617A"/>
<circle cx="28.7062" cy="10.696" r="0.507447" transform="rotate(-59.552 28.7062 10.696)" fill="#54617A"/>
<circle cx="24.4926" cy="17.592" r="2.02979" transform="rotate(-59.552 24.4926 17.592)" fill="#54617A"/>
</svg>
