<svg width="44" height="44" viewBox="0 0 44 44" fill="none" xmlns="http://www.w3.org/2000/svg">
<path fill-rule="evenodd" clip-rule="evenodd" d="M22 43C33.598 43 43 33.598 43 22C43 10.402 33.598 1 22 1C10.402 1 1 10.402 1 22C1 33.598 10.402 43 22 43Z" fill="white" stroke="#54617A"/>
<path fill-rule="evenodd" clip-rule="evenodd" d="M22.4112 34.806L30.5191 23.5268L22.4112 28.2838V34.806ZM22.4112 27.1603L30.3971 22.4748L22.4112 18.932V27.1603ZM22.1076 18.9336V27.1252L14.1745 22.5049L22.1076 18.9336ZM22.4112 18.5998L30.3483 22.121L22.4112 8.99988V18.5998ZM22.1076 9.09854V18.6006L14.1283 22.1927L22.1076 9.09854ZM22.1076 28.2488V34.723L14 23.5268L22.1076 28.2488ZM14 22.4033L14.0175 22.3746L14.0412 22.4273L14 22.4033Z" fill="#54617A"/>
</svg>
