<svg width="44" height="44" viewBox="0 0 44 44" fill="none" xmlns="http://www.w3.org/2000/svg">
<path fill-rule="evenodd" clip-rule="evenodd" d="M22 43C33.598 43 43 33.598 43 22C43 10.402 33.598 1 22 1C10.402 1 1 10.402 1 22C1 33.598 10.402 43 22 43Z" fill="white" stroke="#54617A"/>
<path fill-rule="evenodd" clip-rule="evenodd" d="M21.5299 23.6729C22.2723 23.6729 22.8742 23.0711 22.8742 22.3286C22.8742 21.5861 22.2723 20.9843 21.5299 20.9843C20.7874 20.9843 20.1855 21.5861 20.1855 22.3286C20.1855 23.0711 20.7874 23.6729 21.5299 23.6729Z" fill="#54617A"/>
<path fill-rule="evenodd" clip-rule="evenodd" d="M21.5299 19.0722C22.2723 19.0722 22.8742 18.4703 22.8742 17.7279C22.8742 16.9854 22.2723 16.3835 21.5299 16.3835C20.7874 16.3835 20.1855 16.9854 20.1855 17.7279C20.1855 18.4703 20.7874 19.0722 21.5299 19.0722Z" fill="#54617A"/>
<path fill-rule="evenodd" clip-rule="evenodd" d="M21.5299 14.5911C22.2723 14.5911 22.8742 13.9893 22.8742 13.2468C22.8742 12.5043 22.2723 11.9025 21.5299 11.9025C20.7874 11.9025 20.1855 12.5043 20.1855 13.2468C20.1855 13.9893 20.7874 14.5911 21.5299 14.5911Z" fill="#54617A"/>
<path fill-rule="evenodd" clip-rule="evenodd" d="M21.5299 28.2138C22.2723 28.2138 22.8742 27.6119 22.8742 26.8695C22.8742 26.127 22.2723 25.5251 21.5299 25.5251C20.7874 25.5251 20.1855 26.127 20.1855 26.8695C20.1855 27.6119 20.7874 28.2138 21.5299 28.2138Z" fill="#54617A"/>
<path fill-rule="evenodd" clip-rule="evenodd" d="M21.5299 32.7548C22.2723 32.7548 22.8742 32.153 22.8742 31.4105C22.8742 30.668 22.2723 30.0662 21.5299 30.0662C20.7874 30.0662 20.1855 30.668 20.1855 31.4105C20.1855 32.153 20.7874 32.7548 21.5299 32.7548Z" fill="#54617A"/>
<path fill-rule="evenodd" clip-rule="evenodd" d="M25.7124 25.8238C26.4548 25.8238 27.0567 25.2219 27.0567 24.4795C27.0567 23.737 26.4548 23.1351 25.7124 23.1351C24.9699 23.1351 24.368 23.737 24.368 24.4795C24.368 25.2219 24.9699 25.8238 25.7124 25.8238Z" fill="#54617A"/>
<path fill-rule="evenodd" clip-rule="evenodd" d="M25.7124 30.3648C26.4548 30.3648 27.0567 29.7629 27.0567 29.0205C27.0567 28.278 26.4548 27.6761 25.7124 27.6761C24.9699 27.6761 24.368 28.278 24.368 29.0205C24.368 29.7629 24.9699 30.3648 25.7124 30.3648Z" fill="#54617A"/>
<path fill-rule="evenodd" clip-rule="evenodd" d="M25.6526 16.802C26.395 16.802 26.9969 16.2001 26.9969 15.4576C26.9969 14.7152 26.395 14.1133 25.6526 14.1133C24.9101 14.1133 24.3082 14.7152 24.3082 15.4576C24.3082 16.2001 24.9101 16.802 25.6526 16.802Z" fill="#54617A"/>
<path fill-rule="evenodd" clip-rule="evenodd" d="M25.6526 21.3427C26.395 21.3427 26.9969 20.7409 26.9969 19.9984C26.9969 19.2559 26.395 18.6541 25.6526 18.6541C24.9101 18.6541 24.3082 19.2559 24.3082 19.9984C24.3082 20.7409 24.9101 21.3427 25.6526 21.3427Z" fill="#54617A"/>
<path fill-rule="evenodd" clip-rule="evenodd" d="M17.5267 16.802C18.2692 16.802 18.8711 16.2001 18.8711 15.4576C18.8711 14.7152 18.2692 14.1133 17.5267 14.1133C16.7843 14.1133 16.1824 14.7152 16.1824 15.4576C16.1824 16.2001 16.7843 16.802 17.5267 16.802Z" fill="#54617A"/>
<path fill-rule="evenodd" clip-rule="evenodd" d="M17.5267 21.3427C18.2692 21.3427 18.8711 20.7409 18.8711 19.9984C18.8711 19.2559 18.2692 18.6541 17.5267 18.6541C16.7843 18.6541 16.1824 19.2559 16.1824 19.9984C16.1824 20.7409 16.7843 21.3427 17.5267 21.3427Z" fill="#54617A"/>
<path fill-rule="evenodd" clip-rule="evenodd" d="M13.3443 19.132C14.0868 19.132 14.6887 18.5302 14.6887 17.7877C14.6887 17.0452 14.0868 16.4434 13.3443 16.4434C12.6019 16.4434 12 17.0452 12 17.7877C12 18.5302 12.6019 19.132 13.3443 19.132Z" fill="#54617A"/>
<path fill-rule="evenodd" clip-rule="evenodd" d="M13.3443 23.6729C14.0868 23.6729 14.6887 23.0711 14.6887 22.3286C14.6887 21.5861 14.0868 20.9843 13.3443 20.9843C12.6019 20.9843 12 21.5861 12 22.3286C12 23.0711 12.6019 23.6729 13.3443 23.6729Z" fill="#54617A"/>
<path fill-rule="evenodd" clip-rule="evenodd" d="M17.5267 25.8238C18.2692 25.8238 18.8711 25.2219 18.8711 24.4795C18.8711 23.737 18.2692 23.1351 17.5267 23.1351C16.7843 23.1351 16.1824 23.737 16.1824 24.4795C16.1824 25.2219 16.7843 25.8238 17.5267 25.8238Z" fill="#54617A"/>
<path fill-rule="evenodd" clip-rule="evenodd" d="M17.5267 30.3648C18.2692 30.3648 18.8711 29.7629 18.8711 29.0205C18.8711 28.278 18.2692 27.6761 17.5267 27.6761C16.7843 27.6761 16.1824 28.278 16.1824 29.0205C16.1824 29.7629 16.7843 30.3648 17.5267 30.3648Z" fill="#54617A"/>
<path fill-rule="evenodd" clip-rule="evenodd" d="M13.3443 28.1541C14.0868 28.1541 14.6887 27.5523 14.6887 26.8098C14.6887 26.0673 14.0868 25.4655 13.3443 25.4655C12.6019 25.4655 12 26.0673 12 26.8098C12 27.5523 12.6019 28.1541 13.3443 28.1541Z" fill="#54617A"/>
<path fill-rule="evenodd" clip-rule="evenodd" d="M29.6557 23.6132C30.3982 23.6132 31.0001 23.0114 31.0001 22.2689C31.0001 21.5264 30.3982 20.9246 29.6557 20.9246C28.9133 20.9246 28.3114 21.5264 28.3114 22.2689C28.3114 23.0114 28.9133 23.6132 29.6557 23.6132Z" fill="#54617A"/>
<path fill-rule="evenodd" clip-rule="evenodd" d="M29.6557 19.132C30.3982 19.132 31.0001 18.5302 31.0001 17.7877C31.0001 17.0452 30.3982 16.4434 29.6557 16.4434C28.9133 16.4434 28.3114 17.0452 28.3114 17.7877C28.3114 18.5302 28.9133 19.132 29.6557 19.132Z" fill="#54617A"/>
<path fill-rule="evenodd" clip-rule="evenodd" d="M29.6557 28.1541C30.3982 28.1541 31.0001 27.5523 31.0001 26.8098C31.0001 26.0673 30.3982 25.4655 29.6557 25.4655C28.9133 25.4655 28.3114 26.0673 28.3114 26.8098C28.3114 27.5523 28.9133 28.1541 29.6557 28.1541Z" fill="#54617A"/>
</svg>
